<svg width="24" height="24" viewBox="0 0 24 24" fill="none" xmlns="http://www.w3.org/2000/svg">
  <circle cx="12" cy="12" r="10" fill="#0033A1"/>
  <path
    d="M12.38 6.9C14.4 6.9 15.82 7.88 16.58 9.58L14.94 10.34C14.45 9.25 13.61 8.68 12.41 8.68C10.53 8.68 9.18 10.02 9.18 12.01C9.18 14.02 10.54 15.36 12.48 15.36C14.08 15.36 15.2 14.44 15.39 13.08H12.68V11.52H17.25C17.29 11.76 17.31 12.03 17.31 12.24C17.31 15.18 15.31 17.1 12.47 17.1C9.47 17.1 7.25 14.93 7.25 12.01C7.25 9.07 9.44 6.9 12.38 6.9Z"
    fill="white"
  />
</svg>
